<svg xmlns="http://www.w3.org/2000/svg" xmlns:xlink="http://www.w3.org/1999/xlink" width="66" height="29" viewBox="0 0 66 29">
    <defs>
        <linearGradient id="to1sesrw0c" x1="99.998%" x2="-.002%" y1="50.007%" y2="50.007%">
            <stop offset="0%" stop-color="#E7393F"/>
            <stop offset="50%" stop-color="#B3213B"/>
            <stop offset="100%" stop-color="#861F3E"/>
        </linearGradient>
        <path id="wnm3eg12ia" d="M22.767 11.542L0.12 11.542 0.12 11.537 11.443 0.214 22.767 11.54z"/>
    </defs>
    <g fill="none" fill-rule="evenodd">
        <g>
            <g>
                <g>
                    <g>
                        <path fill="#832540" d="M30.546 17.193L34.923 12.608 34.923 12.504 32.806 12.504 29.001 16.531 29.001 12.504 27.286 12.504 27.286 21.596 29.001 21.596 29.001 17.753 32.455 21.596 34.585 21.596 34.585 21.545zM39.472 15.501c0 .804-.549 1.669-1.426 1.669-.876 0-1.412-.865-1.412-1.669s.536-1.682 1.412-1.682c.877 0 1.426.878 1.426 1.682zm1.51-2.997h-1.68v.549h-.025c-.366-.476-.999-.744-1.62-.744-1.754 0-2.754 1.596-2.754 3.216 0 1.584 1.012 3.156 2.73 3.156.62 0 1.253-.269 1.669-.756v.56h1.68v-5.98zM46.877 15.501c0 .804-.535 1.669-1.413 1.669-.877 0-1.413-.865-1.413-1.669s.536-1.682 1.413-1.682c.878 0 1.413.878 1.413 1.682zm-2.655 2.436c.39.463 1.023.744 1.657.744 1.693 0 2.728-1.584 2.728-3.156 0-1.632-.999-3.216-2.765-3.216-.609 0-1.255.268-1.595.756h-.025V9.313h-1.706v9.173h1.706v-.549zM51.493 12.504h-1.706v5.982h1.706v-5.982zm.16 8.49c0-.56-.452-1.01-1.013-1.01-.56 0-1.01.45-1.01 1.01 0 .548.45 1.012 1.01 1.012s1.012-.464 1.012-1.011M55.001 12.504L53.296 12.504 53.296 17.048 52.711 17.048 52.711 18.486 53.296 18.486 53.296 20.508 55.001 20.508 55.001 18.486 56.049 18.486 56.049 17.048 55.001 17.048zM60.872 15.501c0 .804-.548 1.669-1.425 1.669-.876 0-1.413-.865-1.413-1.669s.537-1.682 1.413-1.682c.877 0 1.425.878 1.425 1.682zm1.51-2.997h-1.681v.549h-.024c-.365-.476-.999-.744-1.62-.744-1.754 0-2.753 1.596-2.753 3.216 0 1.584 1.011 3.156 2.728 3.156.622 0 1.255-.269 1.669-.756v.56h1.681v-5.98zM65.622 12.504L63.916 12.504 63.916 22.834 65.622 22.834zM39.16 3.308c0 .804-.548 1.668-1.425 1.668s-1.413-.864-1.413-1.668c0-.805.536-1.682 1.413-1.682s1.425.877 1.425 1.682zM40.67.31h-1.68v.548h-.025c-.366-.475-1-.743-1.62-.743-1.755 0-2.753 1.595-2.753 3.216 0 1.583 1.01 3.155 2.728 3.155.622 0 1.256-.268 1.67-.755v.56h1.68V.31zM43.91 5.744h.024c.354.535.95.743 1.56.743 1.608 0 2.07-1.133 2.07-2.521V.31h-1.705v3.167c0 .719.037 1.645-.926 1.645-1.01 0-1.023-1.134-1.023-1.852V.31h-1.705v5.98h1.705v-.547zM50.791 4.099L50.816 4.099 52.607 6.292 54.824 6.292 52.302 3.66 55.019.311 52.778.311 50.816 2.856 50.791 2.856 50.791.311 49.087.311 49.087 10.64 50.791 10.64zM29.076 1.748h1.12c.962 0 1.79.122 1.79 1.316 0 1.193-.974 1.243-1.876 1.243h-1.034V1.748zm0 3.923h.962c.877 0 1.303.256 1.303 1.206 0 .937-.536 1.181-1.292 1.181h-.973V5.671zm-1.79 3.825h2.97c1.705 0 2.754-.67 2.754-2.498 0-.657-.232-1.412-.805-1.778 1.085-.195 1.572-1.29 1.572-2.302 0-1.803-1.267-2.607-2.935-2.607h-3.556v9.185z" transform="translate(-621.000000, -113.000000) translate(337.000000, 113.000000) translate(317.000000, 14.500000) scale(1, -1) translate(-317.000000, -14.500000) translate(284.000000, 0.000000) translate(0.000000, 3.905048)"/>
                        <g>
                            <path fill="#832540" fill-rule="nonzero" d="M0.118 0.088L0.118 0.085 22.766 0.085 22.766 0.089 11.445 11.415z" transform="translate(-621.000000, -113.000000) translate(337.000000, 113.000000) translate(317.000000, 14.500000) scale(1, -1) translate(-317.000000, -14.500000) translate(284.000000, 0.000000) translate(0.000000, 3.905048) translate(0.000000, 0.260337)"/>
                            <path fill="#B52843" fill-rule="nonzero" d="M0.12 22.736L0.118 22.736 0.118 0.089 11.445 11.415 0.12 22.736z" transform="translate(-621.000000, -113.000000) translate(337.000000, 113.000000) translate(317.000000, 14.500000) scale(1, -1) translate(-317.000000, -14.500000) translate(284.000000, 0.000000) translate(0.000000, 3.905048) translate(0.000000, 0.260337)"/>
                            <g transform="translate(-621.000000, -113.000000) translate(337.000000, 113.000000) translate(317.000000, 14.500000) scale(1, -1) translate(-317.000000, -14.500000) translate(284.000000, 0.000000) translate(0.000000, 3.905048) translate(0.000000, 0.260337) translate(0.000000, 11.194471)">
                                <mask id="60io4gzieb" fill="#fff">
                                    <use xlink:href="#wnm3eg12ia"/>
                                </mask>
                                <g fill="url(#to1sesrw0c)" mask="url(#60io4gzieb)">
                                    <path d="M22.767 11.542L0.12 11.542 0.12 11.537 11.443 0.214 22.767 11.54z"/>
                                </g>
                            </g>
                        </g>
                    </g>
                    <g fill="#832540" fill-rule="nonzero">
                        <path d="M.658.395c.184 0 .329.034.431.103.102.068.153.176.153.322 0 .132-.05.23-.15.293-.1.061-.245.093-.434.093H.285V.395h.373zM.602 1.408c.185 0 .317.032.397.095.08.063.12.155.12.275 0 .117-.042.202-.127.253-.084.05-.209.077-.377.077h-.33v-.7h.317zm-.588.915H.65c.108 0 .208-.01.3-.029.09-.02.167-.05.231-.092.064-.04.115-.095.15-.161.037-.067.055-.147.055-.24 0-.108-.031-.204-.092-.29s-.155-.145-.281-.178V1.32c.157-.024.279-.078.365-.163.088-.085.132-.202.132-.35 0-.105-.02-.196-.059-.274-.04-.08-.095-.145-.167-.197-.072-.052-.158-.091-.258-.118C.927.192.817.18.697.18H.014v2.144zM2.425 2.323h.272V.18h-.272v2.144zm.135.19c-.053 0-.097.017-.132.049-.036.033-.055.075-.055.128 0 .05.019.09.055.124.035.032.08.049.132.049.052 0 .097-.017.132-.05.036-.032.054-.073.054-.123 0-.053-.018-.095-.054-.128-.035-.032-.08-.049-.132-.049M4.047 1.307h.36c.168 0 .296.034.385.103.09.068.134.172.134.312 0 .142-.045.24-.134.298-.09.056-.217.084-.386.084h-.36v-.797zM4.953.179l-.517.906h-.39V.179h-.27v2.144h.67c.109 0 .21-.01.302-.03.092-.021.172-.056.24-.104.065-.047.117-.11.154-.186.037-.076.055-.17.055-.281 0-.168-.043-.302-.13-.402-.088-.1-.204-.169-.35-.206L5.26.18h-.307zM6.165 2.323h.271V.18h-.27v2.144zm.135.19c-.053 0-.097.017-.133.049-.036.033-.055.075-.055.128 0 .05.019.09.055.124.036.032.08.049.133.049.052 0 .096-.017.131-.05.036-.032.055-.073.055-.123 0-.053-.019-.095-.055-.128-.035-.032-.08-.049-.131-.049M7.515 2.323h.281L8.571.976l.232-.444h.013l-.021.339c-.008.116-.012.231-.012.344v1.108h.258V.18h-.28l-.779 1.35-.232.441h-.013l.025-.332c.008-.112.012-.224.012-.338V.18h-.26v2.143zM9.996 1.251c0 .173.024.327.072.464.047.138.114.255.2.35.084.096.185.17.301.22.117.052.244.078.382.078.13 0 .244-.027.342-.08.098-.054.18-.115.242-.185l-.153-.173c-.057.06-.12.11-.188.145-.069.036-.149.054-.24.054-.103 0-.195-.02-.278-.06-.083-.04-.153-.098-.213-.174-.059-.075-.104-.166-.137-.273-.033-.106-.049-.226-.049-.359 0-.135.016-.257.047-.364.032-.109.076-.2.133-.277.057-.076.126-.135.207-.176.082-.042.174-.062.277-.062.104 0 .195.02.272.062.078.041.151.1.221.176l.154-.167c-.085-.098-.181-.174-.288-.229-.107-.053-.229-.08-.366-.08-.135 0-.26.024-.374.074-.114.05-.214.123-.298.218-.084.095-.15.21-.196.349-.047.139-.07.295-.07.47M12.477 2.323h.27V.18h-.27v2.144zm.134.19c-.052 0-.096.017-.133.049-.036.033-.054.075-.054.128 0 .05.018.09.054.124.037.032.08.049.133.049.052 0 .096-.017.132-.05.036-.032.054-.073.054-.123 0-.053-.018-.095-.054-.128-.036-.032-.08-.049-.132-.049M15.621.395c.185 0 .33.034.432.103.102.068.153.176.153.322 0 .132-.05.23-.15.293-.1.061-.245.093-.435.093h-.373V.395h.373zm-.055 1.013c.185 0 .317.032.397.095.08.063.12.155.12.275 0 .117-.043.202-.126.253-.085.05-.21.077-.379.077h-.33v-.7h.318zm-.589.915h.637c.11 0 .21-.01.3-.029.09-.02.168-.05.232-.092.064-.04.114-.095.15-.161.036-.067.054-.147.054-.24 0-.108-.03-.204-.091-.29-.062-.086-.155-.145-.282-.178V1.32c.158-.024.28-.078.367-.163.087-.085.13-.202.13-.35 0-.105-.02-.196-.058-.274-.04-.08-.095-.145-.167-.197-.072-.052-.158-.091-.258-.118-.1-.026-.21-.039-.33-.039h-.684v2.144zM18.302 1.052l-.101.327c-.04.12-.078.24-.112.357-.035.12-.07.241-.104.365h-.014c-.032-.124-.066-.246-.1-.365-.036-.118-.073-.237-.112-.357l-.101-.327h.644zm.068-.22h-.78L17.382.18h-.278l.726 2.144h.307L18.864.18h-.291l-.203.654zM19.658 2.323h.281l.774-1.347.233-.444h.013c-.006.11-.014.222-.022.339-.007.116-.011.231-.011.344v1.108h.258V.18h-.28l-.779 1.35-.232.441h-.013c.01-.109.017-.219.025-.332.007-.112.011-.224.011-.338V.18h-.258v2.143zM22.263 2.323L22.534 2.323 22.534 1.248 22.544 1.248 23.437 2.323 23.744 2.323 23.074 1.506 23.848.179 23.544.179 22.904 1.294 22.534.859 22.534.179 22.263.179z" transform="translate(-621.000000, -113.000000) translate(337.000000, 113.000000) translate(317.000000, 14.500000) scale(1, -1) translate(-317.000000, -14.500000) translate(284.000000, 0.000000) translate(28.116345, 0.000000)"/>
                    </g>
                </g>
            </g>
        </g>
    </g>
</svg>
