<svg xmlns="http://www.w3.org/2000/svg" width="27" height="18" viewBox="0 0 27 18">
    <g fill="none" fill-rule="evenodd">
        <g fill="#9298A3">
            <g>
                <g>
                    <path fill-rule="nonzero" d="M23.339.005H3.169C1.42.005 0 1.445 0 3.216v11.548c0 1.771 1.421 3.212 3.169 3.212h20.17c1.747 0 3.168-1.441 3.168-3.212V3.216c0-1.77-1.421-3.21-3.168-3.21zm1.415 14.76c0 .79-.635 1.434-1.415 1.434H3.169c-.78 0-1.416-.644-1.416-1.435V7.025h23.001v7.74zm0-10.274l-23 .001V3.216c0-.79.634-1.434 1.415-1.434h20.17c.78 0 1.415.643 1.415 1.434v1.275z" transform="translate(-645.000000, -322.000000) translate(337.000000, 283.000000) translate(308.000000, 39.000000)"/>
                    <path d="M3.93 14.55h4.799c.172 0 .31-.14.31-.315v-.96c0-.173-.138-.315-.31-.315h-4.8c-.172 0-.311.142-.311.316v.96c0 .174.14.315.311.315zM19.489 14.55h1.428c.823 0 1.491-.676 1.491-1.511v-1.447c0-.835-.668-1.512-1.491-1.512h-1.428c-.824 0-1.492.677-1.492 1.512v1.447c0 .835.668 1.512 1.492 1.512z" transform="translate(-645.000000, -322.000000) translate(337.000000, 283.000000) translate(308.000000, 39.000000)"/>
                </g>
            </g>
        </g>
    </g>
</svg>
