<svg xmlns="http://www.w3.org/2000/svg" width="95" height="29" viewBox="0 0 95 29">
    <g fill="none" fill-rule="evenodd">
        <g fill="#FF6617" fill-rule="nonzero">
            <g>
                <path d="M12.699 21.435c.021.153.032.28.032.378 0 .099-.118.192-.355.28-.795.24-1.59.394-2.385.46-.795.066-1.471.099-2.03.099-1.848 0-3.17-.4-3.964-1.2-.795-.801-1.193-1.98-1.193-3.537V8.541H.548c-.236 0-.387-.06-.451-.18C.032 8.24 0 8.09 0 7.915V6.14c0-.22.027-.367.08-.444.054-.077.2-.148.436-.214l2.385-.56.225-3.091c.022-.263.092-.45.21-.56.118-.109.295-.197.532-.262L6.833.022c.193-.044.349-.022.467.066.118.087.177.263.177.526v4.408h3.546c.236 0 .381.049.435.148.054.098.08.235.08.41v2.336c0 .22-.021.378-.064.477-.043.099-.193.148-.451.148H7.477v8.355c0 .636.156 1.074.468 1.315.311.242.779.362 1.402.362.15 0 .333-.01.548-.033l.66-.066c.226-.021.446-.043.661-.065.215-.022.398-.044.548-.066.344-.066.527.044.548.329l.387 2.763zm17.327-1.283c0 .285-.038.526-.113.724-.075.197-.263.383-.564.559-.494.241-1.026.438-1.595.592-.57.153-1.15.274-1.74.362-.592.087-1.188.153-1.79.197-.601.044-1.17.066-1.708.066-1.461 0-2.67-.143-3.626-.428-.956-.285-1.724-.674-2.304-1.167-.58-.494-.989-1.075-1.225-1.744-.236-.669-.355-1.387-.355-2.154 0-.855.14-1.64.42-2.352.279-.713.698-1.332 1.256-1.858.56-.527 1.263-.938 2.112-1.234.848-.296 1.853-.444 3.013-.444h3.545v-.526c0-.307-.032-.603-.096-.888-.065-.285-.199-.532-.403-.74-.204-.209-.489-.379-.854-.51-.366-.132-.849-.198-1.45-.198-.323 0-.688.017-1.096.05-.409.033-.817.077-1.225.131-.408.055-.806.121-1.193.198-.386.076-.73.159-1.031.246-.28.066-.473.066-.58 0-.108-.065-.183-.208-.226-.427l-.516-2.303c-.064-.24-.07-.41-.016-.51.054-.098.167-.18.339-.246.967-.351 1.982-.603 3.046-.757 1.063-.153 2.121-.23 3.174-.23 2.342 0 4.061.51 5.157 1.53s1.644 2.527 1.644 4.522v9.539zm-4.596-5.69h-2.546c-.301 0-.623.022-.967.065-.344.044-.66.148-.95.313-.291.164-.533.4-.726.707-.193.307-.29.724-.29 1.25 0 .767.252 1.305.757 1.612.505.307 1.187.46 2.047.46.129 0 .3-.005.516-.016.214-.011.445-.033.693-.066.247-.033.5-.077.757-.132.258-.054.494-.126.709-.213v-3.98zM37.98 28.44c0 .241-.037.395-.113.46-.075.066-.263.099-.564.099h-3.352c-.236 0-.408-.033-.515-.099-.108-.065-.161-.219-.161-.46V6.995c0-.241.037-.433.112-.576.076-.142.253-.29.532-.444 1.032-.482 2.186-.822 3.465-1.02 1.278-.197 2.498-.295 3.658-.295 1.526 0 2.81.235 3.852.707 1.042.471 1.88 1.107 2.514 1.908.633.8 1.09 1.748 1.37 2.845.279 1.096.418 2.27.418 3.52 0 1.227-.15 2.384-.45 3.47-.302 1.085-.764 2.033-1.387 2.845-.623.811-1.412 1.452-2.369 1.924-.956.471-2.079.707-3.368.707-.644 0-1.24-.027-1.789-.082-.547-.055-1.165-.16-1.853-.313v6.25zm6.317-14.9c0-.9-.086-1.656-.257-2.27-.172-.614-.425-1.107-.758-1.48s-.741-.636-1.225-.79c-.483-.153-1.026-.23-1.627-.23-.301 0-.693.033-1.177.099-.483.066-.907.153-1.273.263v8.98c.559.153 1.058.252 1.499.296.44.044.833.065 1.176.065 1.075 0 1.95-.372 2.627-1.118.677-.745 1.015-2.017 1.015-3.815zm14.182 6.183c0 .834-.285 1.535-.854 2.105-.57.57-1.273.856-2.111.856-.409 0-.795-.077-1.16-.23-.366-.154-.683-.362-.952-.626-.268-.263-.483-.575-.644-.937-.161-.362-.242-.751-.242-1.168 0-.416.08-.805.242-1.167.161-.362.376-.675.644-.938.27-.263.586-.471.951-.625.366-.153.752-.23 1.16-.23.839 0 1.542.285 2.112.855.569.57.854 1.272.854 2.105zm18.242.428c0 .285-.037.526-.113.724-.075.197-.263.383-.564.559-.494.241-1.026.438-1.595.592-.57.153-1.15.274-1.74.362-.591.087-1.188.153-1.79.197-.601.044-1.17.066-1.708.066-1.46 0-2.67-.143-3.625-.428-.957-.285-1.725-.674-2.305-1.167-.58-.494-.988-1.075-1.225-1.744-.236-.669-.354-1.387-.354-2.154 0-.855.14-1.64.419-2.352.28-.713.698-1.332 1.257-1.858.558-.527 1.262-.938 2.11-1.234.85-.296 1.854-.444 3.014-.444h3.546v-.526c0-.307-.033-.603-.097-.888-.064-.285-.199-.532-.403-.74-.204-.209-.489-.379-.854-.51-.365-.132-.849-.198-1.45-.198-.323 0-.688.017-1.096.05-.408.033-.817.077-1.225.131-.408.055-.806.121-1.192.198-.387.076-.731.159-1.032.246-.28.066-.473.066-.58 0-.107-.065-.183-.208-.226-.427l-.515-2.303c-.065-.24-.07-.41-.016-.51.053-.098.166-.18.338-.246.967-.351 1.982-.603 3.046-.757 1.063-.153 2.122-.23 3.175-.23 2.342 0 4.06.51 5.156 1.53s1.644 2.527 1.644 4.522v9.539zm-4.706-5.69H69.47c-.3 0-.623.022-.967.065-.343.044-.66.148-.95.313-.29.164-.532.4-.726.707-.193.307-.29.724-.29 1.25 0 .767.253 1.305.758 1.612.505.307 1.187.46 2.046.46.13 0 .301-.005.516-.016.215-.011.446-.033.693-.066.247-.033.5-.077.757-.132.258-.054.495-.126.71-.213v-3.98zm22.046-6.974c0 .33-.048.653-.145.97-.097.319-.263.62-.5.905l-7.735 8.881.065.165h7.864c.236 0 .397.038.483.115.086.077.13.236.13.477v2.664c0 .241-.038.406-.114.493-.075.088-.23.132-.467.132H81.104c-.537 0-.929-.126-1.176-.378-.247-.252-.37-.598-.37-1.036v-.987c0-.33.048-.658.144-.987.097-.329.307-.68.629-1.052l7.703-8.881-.064-.132h-7.027c-.258 0-.419-.044-.483-.132-.065-.087-.097-.252-.097-.493V5.647c0-.417.204-.625.613-.625H92.45c.537 0 .94.082 1.208.246.269.165.403.521.403 1.07v1.15z" transform="translate(-337.000000, -113.000000) translate(337.000000, 113.000000)"/>
            </g>
        </g>
    </g>
</svg>
