<svg xmlns="http://www.w3.org/2000/svg" width="27" height="21" viewBox="0 0 27 21">
    <g fill="none" fill-rule="evenodd">
        <g fill="#C5C5C5" fill-rule="nonzero">
            <g>
                <g>
                    <path d="M4.89 20.792v-1.384c0-.522-.332-.873-.868-.877-.281-.005-.572.083-.775.392-.152-.245-.392-.392-.73-.392-.235 0-.465.069-.645.327v-.272h-.478v2.206h.484V19.57c0-.383.213-.586.54-.586.319 0 .48.208.48.582v1.227h.485V19.57c0-.383.222-.586.54-.586.328 0 .485.208.485.582v1.227h.482zm7.172-2.206h-.784v-.67h-.485v.67h-.448v.439h.448v1.006c0 .512.199.817.766.817.208 0 .448-.065.6-.171l-.138-.41c-.143.082-.3.124-.425.124-.24 0-.318-.148-.318-.37v-.996h.784v-.439zm4.094-.055c-.277 0-.457.129-.581.323v-.268h-.476v2.206h.48v-1.237c0-.364.157-.567.471-.567.097 0 .198.014.3.055l.148-.452c-.106-.042-.245-.06-.342-.06zm-6.19.23c-.23-.152-.548-.23-.9-.23-.558 0-.918.267-.918.706 0 .36.268.581.762.65l.226.033c.263.037.388.106.388.23 0 .172-.176.268-.503.268-.333 0-.573-.106-.734-.23l-.226.374c.263.193.595.286.955.286.637 0 1.006-.3 1.006-.72 0-.388-.29-.591-.77-.66l-.227-.033c-.207-.027-.373-.069-.373-.217 0-.161.156-.258.42-.258.281 0 .553.106.687.19l.208-.388zm12.857-.23c-.277 0-.457.129-.581.323v-.268h-.476v2.206h.48v-1.237c0-.364.157-.567.47-.567.098 0 .2.014.3.055l.149-.452c-.107-.042-.245-.06-.342-.06zm-6.182 1.158c0 .67.466 1.159 1.177 1.159.332 0 .554-.074.794-.263l-.231-.388c-.18.13-.37.198-.577.198-.383-.004-.665-.281-.665-.706 0-.424.282-.701.665-.706.208 0 .397.07.577.199l.23-.388c-.24-.19-.461-.263-.793-.263-.711 0-1.177.489-1.177 1.158zm4.493 0v-1.103h-.48v.268c-.152-.199-.383-.323-.697-.323-.619 0-1.103.484-1.103 1.158 0 .674.484 1.159 1.103 1.159.314 0 .545-.125.697-.323v.267h.48V19.69zm-1.786 0c0-.387.254-.706.669-.706.397 0 .665.305.665.706 0 .402-.268.706-.665.706-.415 0-.67-.318-.67-.706zm-5.79-1.158c-.646 0-1.099.47-1.099 1.158 0 .702.471 1.159 1.131 1.159.332 0 .637-.083.905-.31l-.236-.355c-.184.148-.42.23-.641.23-.31 0-.591-.142-.66-.54h1.638c.005-.06.01-.12.01-.184-.005-.687-.43-1.158-1.048-1.158zm-.01.429c.31 0 .508.194.559.535h-1.145c.051-.318.245-.535.586-.535zm12.04.73V17.7h-.48v1.154c-.153-.199-.383-.323-.697-.323-.619 0-1.103.484-1.103 1.158 0 .674.484 1.159 1.103 1.159.314 0 .544-.125.697-.323v.267h.48V19.69zm-1.786 0c0-.388.253-.707.669-.707.397 0 .664.305.664.706 0 .402-.267.706-.664.706-.416 0-.67-.318-.67-.706zm-16.207 0v-1.104h-.48v.268c-.153-.199-.383-.323-.697-.323-.619 0-1.103.484-1.103 1.158 0 .674.484 1.159 1.103 1.159.314 0 .544-.125.697-.323v.267h.48V19.69zm-1.787 0c0-.388.254-.707.67-.707.397 0 .664.305.664.706 0 .402-.267.706-.664.706-.416 0-.67-.318-.67-.706zm20.58.784c.03 0 .06.004.088.016.028.012.05.028.072.046.02.02.037.044.048.07.012.025.019.055.019.085 0 .03-.007.057-.019.085-.011.026-.028.05-.048.07-.021.02-.044.034-.072.046-.028.011-.055.018-.088.018-.032 0-.06-.007-.087-.018-.028-.012-.051-.028-.072-.047-.02-.02-.037-.043-.048-.069-.012-.025-.019-.055-.019-.085 0-.03.007-.058.019-.086.011-.027.027-.05.048-.069.021-.02.044-.034.072-.046.025-.012.055-.016.087-.016zm0 .39c.024 0 .047-.005.067-.014.021-.01.04-.02.053-.037.017-.016.028-.035.037-.055.01-.021.014-.044.014-.067 0-.023-.004-.046-.014-.067-.009-.02-.02-.04-.037-.056-.016-.016-.032-.027-.053-.036-.02-.01-.041-.014-.067-.014-.023 0-.046.004-.066.014-.021.009-.04.02-.056.036-.016.017-.028.035-.037.056-.009.02-.014.044-.014.067 0 .023.005.046.014.067.01.02.021.039.037.055.016.016.035.028.056.037.02.01.041.014.066.014zm.012-.275c.025 0 .046.007.06.019.014.011.02.027.02.048 0 .016-.004.03-.015.042-.012.011-.028.018-.049.02l.067.077h-.053l-.062-.077h-.021v.077h-.04v-.203h.093v-.003zm-.05.04v.055h.05c.012 0 .02-.002.028-.007.007-.005.009-.012.009-.02 0-.01-.002-.017-.01-.022-.006-.004-.015-.007-.027-.007h-.05zm-.26-7.173v-.268h.11v-.055h-.275v.055h.108v.268h.058zm.534 0v-.323h-.083l-.097.222-.097-.222h-.085v.323h.06v-.242l.09.21h.062l.09-.21v.244h.06v-.002zM12.706 15.06l.2.166c-1.317.877-2.898 1.39-4.598 1.39C3.72 16.615 0 12.895 0 8.307 0 3.72 3.72 0 8.308 0c1.7 0 3.281.512 4.599 1.39-.067.055-.136.108-.2.165-1.958 1.703-3.082 4.163-3.082 6.753 0 2.589 1.124 5.049 3.081 6.752zM18.576 0c-1.7 0-3.28.512-4.598 1.39.067.055.136.108.2.165 1.957 1.703 3.079 4.163 3.079 6.753 0 2.589-1.122 5.049-3.079 6.752-.064.055-.133.11-.2.166 1.317.877 2.898 1.39 4.599 1.39 4.588 0 8.308-3.72 8.308-8.308C26.885 3.72 23.165 0 18.577 0zm-5.134 1.78c-.106.085-.212.17-.314.26-1.751 1.523-2.859 3.766-2.859 6.268 0 2.501 1.108 4.744 2.86 6.267.101.09.207.176.313.261.106-.085.213-.17.314-.26 1.752-1.524 2.86-3.767 2.86-6.268 0-2.502-1.108-4.745-2.86-6.268-.101-.09-.208-.175-.314-.26" transform="translate(-541.000000, -549.000000) translate(338.000000, 548.000000) translate(203.000000, 1.000000)"/>
                </g>
            </g>
        </g>
    </g>
</svg>
