<svg xmlns="http://www.w3.org/2000/svg" width="27" height="21" viewBox="0 0 27 21">
    <g fill="none" fill-rule="evenodd">
        <g fill="#C5C5C5" fill-rule="nonzero">
            <g>
                <path d="M272.2 14.516v-.27h.11v-.055h-.276v.056h.109v.269h.057zm.536 0v-.325h-.084l-.097.223-.097-.223h-.084v.325h.06v-.244l.09.211h.064l.09-.21v.245h.058v-.002zm-18.574 7.368v-1.388c0-.524-.334-.874-.87-.879-.282-.004-.574.084-.778.394-.153-.245-.394-.394-.732-.394-.236 0-.468.07-.649.33v-.274h-.482v2.213h.487V20.66c0-.385.213-.588.542-.588.32 0 .482.208.482.584v1.23h.487V20.66c0-.385.222-.588.542-.588.329 0 .487.208.487.584v1.23h.484v-.002zm2.711-1.106v-1.105h-.482v.269c-.153-.2-.384-.325-.7-.325-.62 0-1.105.487-1.105 1.161 0 .677.487 1.162 1.105 1.162.316 0 .547-.125.7-.325v.27h.482v-1.107zm-1.791 0c0-.389.255-.709.672-.709.399 0 .667.306.667.71 0 .403-.268.709-.667.709-.417-.003-.672-.322-.672-.71zm12.092-1.165c.172 0 .33.03.475.088.146.06.271.141.378.245.106.105.19.228.25.369s.09.297.09.461c0 .167-.03.32-.09.461-.06.142-.144.265-.25.369-.107.104-.232.185-.378.246-.146.06-.303.088-.475.088-.171 0-.329-.03-.475-.088-.146-.06-.271-.142-.375-.246-.107-.104-.188-.227-.248-.369-.06-.141-.09-.296-.09-.46 0-.168.03-.32.09-.462.06-.141.143-.264.248-.369.106-.104.231-.185.375-.245.144-.058.304-.088.475-.088zm0 .456c-.1 0-.19.016-.276.051-.085.035-.157.084-.22.146-.062.063-.111.137-.146.225-.035.088-.053.183-.053.287 0 .105.018.202.053.288.035.088.084.162.146.225.063.062.135.111.22.146.086.035.176.05.276.05.1 0 .19-.015.276-.05.086-.035.157-.084.22-.146.063-.063.111-.137.146-.225.035-.088.053-.183.053-.288 0-.104-.018-.201-.053-.287-.035-.088-.083-.162-.146-.225-.063-.062-.137-.111-.22-.146-.086-.035-.179-.05-.276-.05zm-7.682.71c-.005-.691-.431-1.162-1.05-1.162-.649 0-1.1.473-1.1 1.161 0 .705.472 1.162 1.133 1.162.333 0 .64-.084.906-.31l-.237-.358c-.185.149-.421.232-.644.232-.31 0-.593-.144-.663-.542h1.643c.007-.058.012-.119.012-.184zm-1.648-.195c.051-.32.246-.538.589-.538.31 0 .51.195.56.538h-1.149zm3.676-.348c-.135-.083-.408-.19-.691-.19-.264 0-.422.097-.422.26 0 .148.167.19.376.218l.227.032c.482.07.774.273.774.663 0 .422-.371.723-1.008.723-.362 0-.695-.093-.957-.287l.227-.376c.162.125.403.232.737.232.329 0 .505-.097.505-.269 0-.125-.125-.195-.39-.232l-.227-.032c-.495-.07-.764-.292-.764-.654 0-.44.361-.71.92-.71.352 0 .672.08.901.233l-.208.39zm2.312-.125h-.785v.999c0 .222.079.37.32.37.125 0 .282-.04.426-.124l.139.412c-.153.107-.394.172-.603.172-.57 0-.769-.306-.769-.82v-1.01h-.45v-.44h.45v-.672h.487v.673h.785v.44zm1.667-.496c.097 0 .236.018.343.06l-.149.454c-.102-.041-.204-.055-.301-.055-.315 0-.473.204-.473.57v1.24h-.482v-2.213h.478v.268c.125-.194.305-.324.584-.324zm3.332 1.947c.03 0 .06.005.088.016.028.012.051.028.072.047.02.02.037.044.049.069.011.028.018.056.018.086 0 .03-.007.058-.018.086-.012.025-.028.05-.05.07-.02.02-.043.034-.07.045-.029.012-.057.019-.089.019-.032 0-.06-.007-.088-.019-.028-.011-.051-.027-.072-.046-.02-.02-.037-.044-.049-.07-.011-.025-.018-.055-.018-.085 0-.03.007-.058.018-.086.012-.028.028-.051.05-.07.02-.02.043-.034.07-.046.026-.011.057-.016.089-.016zm0 .392c.023 0 .046-.005.067-.014.021-.01.04-.021.054-.037.016-.017.027-.035.037-.056.009-.02.013-.044.013-.067 0-.023-.004-.047-.013-.067-.01-.021-.021-.04-.037-.056-.017-.016-.033-.028-.054-.037-.02-.01-.042-.014-.067-.014-.023 0-.046.005-.067.014-.021.01-.04.02-.056.037-.016.016-.028.035-.037.056-.01.02-.014.044-.014.067 0 .023.005.046.014.067.01.02.021.04.037.056.016.016.035.027.056.037.02.009.042.014.067.014zm.012-.276c.025 0 .046.007.06.018.014.012.02.028.02.049 0 .016-.004.03-.016.042-.011.011-.027.018-.048.02l.067.077h-.053l-.063-.076h-.02v.076h-.045v-.204h.098v-.002zm-.05.04v.055h.052c.011 0 .02-.002.028-.007.007-.005.009-.012.009-.021 0-.01-.002-.016-.01-.02-.006-.005-.016-.008-.027-.008h-.051zm-10.033-5.592c.064.056.134.112.201.167-1.323.881-2.91 1.396-4.618 1.396-4.607 0-8.343-3.737-8.343-8.345C246 4.736 249.736 1 254.343 1c1.708 0 3.295.515 4.618 1.395-.067.056-.137.11-.201.167-1.966 1.71-3.094 4.184-3.094 6.782 0 2.601 1.128 5.072 3.094 6.782zM264.655 1c-1.708 0-3.295.515-4.619 1.395.068.056.137.11.202.167 1.965 1.71 3.094 4.182 3.094 6.782 0 2.601-1.126 5.072-3.092 6.782-.064.056-.134.112-.201.167 1.323.881 2.91 1.396 4.618 1.396 4.607 0 8.343-3.737 8.343-8.345-.002-4.61-3.738-8.344-8.345-8.344zM259.5 2.787c-.107.084-.213.172-.315.262-1.76 1.53-2.872 3.783-2.872 6.295 0 2.513 1.113 4.766 2.872 6.296.102.09.208.176.315.262.106-.086.213-.172.315-.262 1.759-1.53 2.871-3.783 2.871-6.296 0-2.512-1.112-4.765-2.871-6.295-.102-.09-.209-.178-.315-.262" transform="translate(-584.000000, -549.000000) translate(338.000000, 548.000000)"/>
            </g>
        </g>
    </g>
</svg>
