<svg xmlns="http://www.w3.org/2000/svg" width="60" height="21" viewBox="0 0 60 21">
    <g fill="none" fill-rule="evenodd">
        <g fill="#C5C5C5">
            <g>
                <g>
                    <path d="M55.83 8.23c0-.64.506-1.162 1.113-1.162.623 0 1.112.522 1.112 1.161 0 .64-.489 1.162-1.112 1.162-.607.016-1.113-.505-1.113-1.162zm1.113.908c.472 0 .84-.403.84-.892 0-.49-.387-.893-.84-.893-.473 0-.843.404-.843.893s.37.892.843.892zm-.154-.387h-.237V7.724h.42c.086 0 .184 0 .253.05.085.048.118.15.118.252 0 .118-.069.22-.167.253l.184.456h-.253l-.151-.404h-.167v.42zm0-.57h.134c.05 0 .102 0 .135-.017.032-.017.049-.07.049-.118 0-.033-.017-.086-.05-.102-.032-.016-.101-.016-.134-.016h-.118l-.016.252zM39.926.472l-.302 1.986c-.656-.355-1.145-.49-1.666-.49-1.382 0-2.356 1.415-2.356 3.417 0 1.38.656 2.22 1.732 2.22.456 0 .958-.15 1.582-.472l-.319 2.087c-.689.204-1.128.27-1.65.27-2.002 0-3.249-1.517-3.249-3.938C33.698 2.29 35.415 0 37.888 0c.319 0 .608.033.84.102l.775.203c.203.082.253.099.423.167zM33.748 1.834c-.05-.016-.118-.016-.184-.016-.607 0-.958.318-1.532 1.21l.167-1.128h-1.683L29.37 9.322h1.867c.673-4.544.84-5.319 1.733-5.319h.135c.167-.892.387-1.549.705-2.156l-.062-.013zM22.62 9.224c-.504.167-.908.252-1.328.252-.942 0-1.463-.57-1.463-1.634 0-.203.016-.436.049-.672l.118-.726.085-.59.807-5.067h1.851l-.22 1.093h.958l-.269 1.802h-.941l-.49 3.097c-.016.135-.032.236-.032.302 0 .387.203.554.64.554.22 0 .37-.016.505-.068l-.27 1.657zM15.284 4.243c0 .941.436 1.581 1.414 2.07.742.37.876.489.876.824 0 .456-.338.672-1.06.672-.554 0-1.06-.085-1.666-.301l-.253 1.716.085.016.338.069c.118.016.27.05.49.066.436.032.79.068 1.026.068 1.953 0 2.861-.79 2.861-2.474 0-1.01-.37-1.614-1.312-2.07-.774-.37-.86-.456-.86-.807 0-.404.302-.607.91-.607.37 0 .859.049 1.328.118l.27-1.716c-.49-.086-1.212-.151-1.635-.151-2.106-.004-2.828 1.125-2.812 2.507zM54.754 9.309h-1.768l.085-.725c-.505.57-1.043.823-1.716.823-1.365 0-2.254-1.227-2.254-3.08 0-2.475 1.381-4.562 3.028-4.562.725 0 1.264.319 1.785 1.01l.404-2.608h1.834L54.754 9.31zm-2.743-1.736c.876 0 1.48-1.027 1.48-2.507 0-.941-.354-1.463-.994-1.463-.84 0-1.447 1.043-1.447 2.49 0 .975.321 1.48.961 1.48zM28.514 9.158c-.64.203-1.247.302-1.92.302-2.07 0-3.163-1.145-3.163-3.334 0-2.56 1.382-4.426 3.249-4.426 1.532 0 2.507 1.06 2.507 2.71 0 .538-.07 1.076-.237 1.834h-3.7c-.017.118-.017.168-.017.236 0 .877.554 1.313 1.634 1.313.656 0 1.263-.151 1.936-.473l-.289 1.838zm-1.043-4.43c.016-.15.016-.285.016-.37 0-.608-.318-.959-.876-.959-.59 0-1.01.473-1.178 1.33h2.038zM7.809 9.309L5.959 9.309 7.019 2.29 4.63 9.309 3.367 9.309 3.216 2.34 2.087 9.309.354 9.309 1.801.184 4.476.184 4.545 5.841 6.362.184 9.256.184zM12.607 6.008c-.204-.016-.286-.033-.42-.033-1.06 0-1.582.387-1.582 1.129 0 .456.27.758.673.758.741 0 1.296-.758 1.329-1.854zm1.348 3.3h-1.549l.033-.773c-.472.623-1.092.892-1.952.892-1.01 0-1.7-.824-1.7-2.021 0-1.818 1.211-2.861 3.265-2.861.22 0 .489.016.758.049.05-.253.069-.355.069-.49 0-.488-.318-.672-1.194-.672-.522 0-1.13.086-1.55.22l-.235.085-.168.05.253-1.667c.925-.286 1.549-.404 2.221-.404 1.598 0 2.442.758 2.442 2.172 0 .371-.033.64-.151 1.48l-.371 2.642-.07.472-.048.37-.033.27-.02.187zM43.139 6.008c-.184-.016-.286-.033-.42-.033-1.06 0-1.598.387-1.598 1.129 0 .456.269.758.672.758.758 0 1.313-.758 1.346-1.854zm1.348 3.3h-1.549l.033-.773c-.472.623-1.092.892-1.952.892-1.01 0-1.7-.824-1.7-2.021 0-1.818 1.211-2.861 3.265-2.861.203 0 .489.016.758.049.05-.253.066-.355.066-.49 0-.488-.319-.672-1.195-.672-.521 0-1.128.086-1.548.22l-.27.069-.167.05.253-1.668c.925-.285 1.549-.403 2.221-.403 1.598 0 2.441.758 2.441 2.172 0 .37-.032.64-.15 1.48l-.388 2.625-.049.472-.05.371-.032.253.013.236zM49.688 1.834c-.05-.016-.118-.016-.184-.016-.607 0-.958.318-1.532 1.21l.167-1.128h-1.683L45.31 9.322h1.867c.672-4.544.84-5.319 1.732-5.319h.135c.167-.892.403-1.549.705-2.156l-.062-.013zM41.879 16.528c0 1.683-.522 2.677-1.346 2.677-.607.017-.958-.656-.958-1.65 0-1.178.538-2.524 1.382-2.524.685 0 .922.722.922 1.497zm1.834.016c0-1.867-.925-3.334-2.661-3.334-2.002 0-3.298 1.769-3.298 4.377 0 1.868.774 3.4 2.658 3.4 1.903.003 3.3-1.345 3.3-4.443zM38.341 11.918l-.285 1.985c-.623-.355-1.06-.49-1.549-.49-1.296 0-2.205 1.415-2.205 3.417 0 1.38.607 2.22 1.615 2.22.436 0 .908-.15 1.48-.472l-.302 2.087c-.64.204-1.06.27-1.55.27-1.866 0-3.044-1.517-3.044-3.938 0-3.265 1.614-5.555 3.92-5.555.303 0 .555.033.775.101l.706.204c.24.069.288.085.44.17zM26.847 13.263c-.049-.017-.118-.017-.184-.017-.57 0-.892.319-1.43 1.211l.167-1.129h-1.565l-1.063 7.426h1.732c.624-4.545.791-5.319 1.615-5.319.049 0 .049 0 .134.016.151-.892.371-1.548.657-2.155l-.063-.033zM49.537 20.685h-1.65l.085-.725c-.473.57-.978.823-1.614.823-1.264 0-2.104-1.227-2.104-3.08 0-2.475 1.296-4.562 2.829-4.562.672 0 1.194.319 1.667 1.027l.387-2.608h1.716l-1.316 9.125zm-2.576-1.749c.824 0 1.382-1.027 1.382-2.507 0-.941-.319-1.447-.926-1.447-.79 0-1.345 1.027-1.345 2.49-.003.975.299 1.464.89 1.464zM10.553 20.652c-.591.204-1.162.302-1.786.302-1.935 0-2.946-1.145-2.946-3.334 0-2.543 1.296-4.426 3.029-4.426 1.43 0 2.34 1.043 2.34 2.71 0 .538-.07 1.076-.22 1.834H7.523c-.016.119-.016.168-.016.237 0 .86.521 1.296 1.532 1.296.623 0 1.178-.151 1.801-.473l-.288 1.854zm-.975-4.426c0-.151.016-.286.016-.371 0-.607-.301-.958-.823-.958-.555 0-.942.472-1.113 1.329h1.92zM31.224 20.652c-.59.204-1.161.302-1.785.302-1.952 0-2.963-1.145-2.963-3.334 0-2.543 1.297-4.426 3.029-4.426 1.43 0 2.356 1.043 2.356 2.71 0 .538-.069 1.076-.22 1.834h-3.448c-.017.119-.017.168-.017.237 0 .86.522 1.296 1.532 1.296.624 0 1.178-.151 1.802-.473l-.286 1.854zm-.977-4.426c.016-.151.016-.286.016-.371 0-.607-.302-.958-.824-.958-.554 0-.941.472-1.112 1.329h1.92zM55.46 20.652c-.607.204-1.178.302-1.785.302-1.936 0-2.963-1.145-2.963-3.334 0-2.543 1.296-4.426 3.045-4.426 1.43 0 2.34 1.043 2.34 2.71 0 .538-.066 1.076-.22 1.834h-3.452c-.017.119-.017.168-.017.237 0 .86.522 1.296 1.532 1.296.624 0 1.178-.151 1.802-.473l-.282 1.854zm-.975-4.426c0-.151.017-.286.017-.371 0-.607-.302-.958-.824-.958-.555 0-.942.472-1.112 1.329h1.92zM5.404 13.6c-.338-.235-.807-.42-1.447-.42-.705 0-1.263.152-1.263.893 0 1.313 2.56.824 2.56 3.652 0 2.576-1.684 3.249-3.216 3.249-.673 0-1.464-.22-2.038-.49l.42-1.886c.354.318 1.043.538 1.634.538.555 0 1.398-.15 1.398-1.112 0-1.5-2.56-.942-2.56-3.57 0-2.409 1.5-3.114 2.947-3.114.807 0 1.582.118 2.021.42l-.456 1.84zM15.635 20.652c-.354.168-.84.286-1.549.286-1.516 0-2.457-1.516-2.457-3.367 0-2.425 1.365-4.341 3.366-4.341.437 0 1.113.184 1.634.489l-.387 1.769c-.37-.253-.758-.404-1.161-.404-.926 0-1.598.86-1.598 2.372 0 .876.489 1.598 1.247 1.598.456 0 .774-.101 1.161-.318l-.256 1.916zM22.135 18.785c-.085.64-.167 1.263-.22 1.92H20.25l.134-1.195h-.016c-.522.807-1.06 1.365-2.022 1.365-1.043 0-1.614-1.112-1.614-2.543 0-.505.033-.774.135-1.548l.472-3.433h1.867l-.505 3.452c-.05.371-.118.742-.118 1.129 0 .436.203.876.705.84.758 0 1.211-.925 1.346-2.021l.521-3.4h1.802l-.82 5.434zM57.195 20.619L56.907 20.619 56.907 19.389 56.503 19.389 56.503 19.12 57.599 19.12 57.599 19.389 57.195 19.389zM59.063 20.619L58.793 20.619 58.793 19.372 58.793 19.372 58.541 20.619 58.272 20.619 58.019 19.372 58.019 19.372 58.019 20.619 57.75 20.619 57.75 19.12 58.17 19.12 58.406 20.298 58.423 20.298 58.659 19.12 59.063 19.12z" transform="translate(-627.000000, -549.000000) translate(338.000000, 548.000000) translate(289.000000, 1.000000)"/>
                </g>
            </g>
        </g>
    </g>
</svg>
