<svg xmlns="http://www.w3.org/2000/svg" width="42" height="22" viewBox="0 0 42 22">
    <g fill="none" fill-rule="evenodd">
        <g fill="#C5C5C5" fill-rule="nonzero">
            <g>
                <g>
                    <path d="M2.293 7.378L.068.545h.954l1.067 3.36c.295.93.545 1.748.726 2.565h.023c.181-.794.477-1.657.772-2.542L4.768.545h.953L3.27 7.378h-.976zM6.198 5.085c.023 1.204.794 1.703 1.68 1.703.636 0 1.021-.113 1.362-.25l.159.636c-.318.136-.863.295-1.635.295-1.52 0-2.406-.999-2.406-2.474 0-1.476.863-2.657 2.293-2.657 1.612 0 2.02 1.408 2.02 2.316 0 .182-.022.318-.022.409l-3.451.022zm2.61-.635c.023-.568-.226-1.453-1.248-1.453-.908 0-1.294.84-1.362 1.453h2.61zM10.375 3.996c0-.568 0-1.067-.045-1.521h.772l.022.953h.046c.227-.658.772-1.067 1.362-1.067.09 0 .182 0 .25.023v.84C12.69 3.2 12.6 3.2 12.486 3.2c-.635 0-1.067.477-1.203 1.135-.022.114-.045.273-.045.409v2.61h-.886v-3.36h.023zM14.325 1.09c0 .295-.204.545-.567.545-.318 0-.545-.25-.545-.545 0-.318.227-.568.568-.568.317 0 .544.25.544.568m-.999 1.385h.886v4.903h-.886V2.475zM15.392 7.378V3.156h-.68v-.681h.68v-.227c0-.682.16-1.317.568-1.726.34-.318.772-.454 1.203-.454.318 0 .59.068.772.136l-.113.681c-.137-.068-.318-.113-.568-.113-.75 0-.953.658-.953 1.43v.273h1.18v.68h-1.18v4.223h-.909zM19.32 1.09c.023.295-.204.545-.568.545-.317 0-.544-.25-.544-.545 0-.318.227-.568.567-.568.34 0 .545.25.545.568m-.999 1.385h.885v4.903h-.885V2.475zM20.796 5.085c.022 1.204.794 1.703 1.68 1.703.635 0 1.021-.113 1.362-.25l.159.636c-.318.136-.863.295-1.635.295-1.52 0-2.406-.999-2.406-2.474 0-1.476.862-2.657 2.293-2.657 1.612 0 2.02 1.408 2.02 2.316 0 .182-.023.318-.023.409l-3.45.022zm2.61-.635c0-.568-.227-1.453-1.248-1.453-.908 0-1.294.84-1.362 1.453h2.61zM29.218.182v5.925c0 .431 0 .93.046 1.271h-.795l-.045-.862H28.4c-.272.545-.863.953-1.68.953-1.18 0-2.089-.999-2.089-2.497 0-1.635 1-2.634 2.203-2.634.749 0 1.248.364 1.475.75h.023V.182h.885zm-.885 4.29c0-.113 0-.272-.045-.386-.137-.567-.613-1.044-1.294-1.044-.931 0-1.476.817-1.476 1.907 0 1 .477 1.816 1.453 1.816.59 0 1.135-.386 1.317-1.067.022-.113.045-.25.045-.386v-.84zM32.51 7.378c.023-.34.046-.84.046-1.271V.182h.885v3.087h.023c.318-.545.885-.908 1.68-.908 1.226 0 2.088 1.022 2.066 2.497 0 1.748-1.113 2.634-2.202 2.634-.704 0-1.272-.273-1.635-.93h-.023l-.045.816h-.795zm.931-1.975c0 .114.023.227.045.318.182.613.682 1.044 1.34 1.044.93 0 1.498-.771 1.498-1.884 0-.976-.5-1.816-1.453-1.816-.613 0-1.18.409-1.362 1.09-.023.09-.045.227-.045.363v.885h-.023zM38.186 2.475l1.067 2.906c.113.317.227.703.318.998h.023c.09-.295.181-.68.317-1.021l.977-2.883h.953l-1.34 3.496c-.635 1.68-1.066 2.543-1.68 3.065-.43.386-.862.545-1.09.567l-.226-.749c.227-.068.522-.204.772-.431.25-.182.545-.545.749-1 .045-.09.068-.158.068-.204 0-.045-.023-.113-.068-.227L37.21 2.475h.976z" transform="translate(-338.000000, -548.000000) translate(338.000000, 548.000000)"/>
                </g>
                <g>
                    <path d="M9.649.272L6.947 7.106l-1.09-5.812C5.721.636 5.222.272 4.654.272H.227L.159.568c.908.204 1.93.522 2.565.862.386.205.5.386.613.886l2.066 8.014h2.77L12.396.272H9.649zM13.508.272L11.351 10.33 13.962 10.33 16.096.272zM19.524 3.065c0-.363.364-.75 1.113-.84.363-.046 1.407-.09 2.565.454l.454-2.134C23.021.318 22.226.09 21.227.09c-2.565 0-4.382 1.362-4.404 3.337-.023 1.453 1.294 2.248 2.27 2.724 1.022.5 1.362.795 1.34 1.25 0 .68-.818.975-1.544.975-1.317.023-2.066-.363-2.68-.635l-.476 2.202c.613.272 1.725.522 2.883.522 2.725 0 4.518-1.34 4.518-3.45.045-2.612-3.632-2.77-3.61-3.951M27.039 6.765l1.385-3.768.772 3.768h-2.157zm.999-6.493c-.5 0-.931.296-1.113.727l-3.904 9.308h2.724l.545-1.498h3.337l.318 1.498h2.406L30.263.25h-2.225v.022z" transform="translate(-338.000000, -548.000000) translate(338.000000, 548.000000) translate(5.221622, 10.443243)"/>
                </g>
            </g>
        </g>
    </g>
</svg>
