<svg xmlns="http://www.w3.org/2000/svg" width="65" height="21" viewBox="0 0 65 21">
    <g fill="none" fill-rule="evenodd">
        <g fill="#C5C5C5" fill-rule="nonzero">
            <g>
                <g>
                    <path d="M24.533.368l-8.46 20.183h-5.52L6.394 4.445C6.138 3.452 5.92 3.09 5.15 2.671 3.898 1.992 1.825 1.352 0 .954L.126.368H9.01c1.131 0 2.151.754 2.408 2.058l2.2 11.682L19.05.368h5.483zM46.16 13.964c.021-5.328-7.368-5.62-7.317-7.999.015-.724.706-1.493 2.214-1.69.748-.099 2.809-.174 5.148.903l.915-4.28C45.868.44 44.25 0 42.24 0c-5.16 0-8.792 2.743-8.824 6.674-.033 2.905 2.593 4.526 4.57 5.492 2.035.99 2.717 1.625 2.708 2.507-.012 1.355-1.622 1.95-3.123 1.974-2.627.042-4.15-.709-5.364-1.274l-.945 4.421c1.22.56 3.47 1.047 5.806 1.071 5.486.003 9.076-2.707 9.094-6.9m13.626 6.586h4.828L60.4.368h-4.457c-1.002 0-1.846.583-2.222 1.48l-7.832 18.703h5.483l1.09-3.015h6.697l.628 3.015zm-5.827-7.15l2.749-7.58 1.582 7.58H53.96zM31.994.369L27.677 20.55h-5.223L26.774.368h5.22z" transform="translate(-396.000000, -549.000000) translate(338.000000, 548.000000) translate(58.000000, 1.000000)"/>
                </g>
            </g>
        </g>
    </g>
</svg>
