<svg xmlns="http://www.w3.org/2000/svg" width="48" height="21" viewBox="0 0 48 21">
    <g fill="none" fill-rule="evenodd">
        <g fill="#C5C5C5" fill-rule="nonzero">
            <g>
                <g>
                    <g>
                        <path d="M22.855 14.65L19.789.317H16.08l3.066 14.333h3.709zm15.6-9.255l1.952 5.383 1.122-5.383h-3.075zM42.593.317h3.428L43.027 14.65h-3.164c-.713 0-1.312-.414-1.579-1.05L32.72.317h3.894l.773 2.141h4.757l.45-2.14zm-9.68 4.68c.015 3.782-5.23 3.992-5.196 5.682.013.514.502 1.06 1.573 1.2.531.069 1.997.124 3.657-.641l.65 3.04c-.892.323-2.04.634-3.468.634-3.666 0-6.245-1.947-6.265-4.737-.024-2.064 1.842-3.215 3.245-3.902 1.445-.702 1.93-1.153 1.923-1.78-.01-.962-1.154-1.388-2.218-1.404-1.865-.03-2.946.504-3.808.906L22.334.853C23.2.455 24.8.11 26.456.093c3.897 0 6.446 1.924 6.458 4.904M17.556 14.65L11.548.317h-3.92L4.67 11.757c-.179.702-.335.961-.88 1.258-.892.484-2.364.937-3.659 1.22l.088.415h6.31c.803 0 1.527-.534 1.71-1.46l1.563-8.295 3.856 9.755h3.897z" transform="translate(-477.000000, -549.000000) translate(338.000000, 548.000000) translate(139.000000, 1.000000) translate(23.782738, 7.685608) scale(-1, 1) rotate(-180.000000) translate(-23.782738, -7.685608) translate(0.282738, 0.185608)"/>
                    </g>
                    <g>
                        <path d="M2.051 1.888L0.544 1.888 0.544 0.486 2.23 0.486 2.23 0.064 0.037 0.064 0.037 3.955 2.143 3.955 2.143 3.533 0.544 3.533 0.544 2.304 2.051 2.304z" transform="translate(-477.000000, -549.000000) translate(338.000000, 548.000000) translate(139.000000, 1.000000) translate(27.332098, 18.702036) scale(-1, 1) rotate(-180.000000) translate(-27.332098, -18.702036) translate(25.832098, 16.702036)"/>
                    </g>
                    <path d="M28.84 20.637L29.348 20.637 29.348 16.539 28.84 16.539z" transform="translate(-477.000000, -549.000000) translate(338.000000, 548.000000) translate(139.000000, 1.000000) translate(29.094160, 18.588431) scale(-1, 1) rotate(-180.000000) translate(-29.094160, -18.588431)"/>
                    <g>
                        <path d="M2.051 1.758c.006.317-.133.82-.704.82-.52 0-.739-.468-.78-.82h1.484zM.562 1.394c.011-.687.444-.97.958-.97.364 0 .589.064.774.145l.092-.364c-.18-.08-.49-.179-.935-.179C.59.026.077.598.077 1.44c0 .843.496 1.501 1.31 1.501.918 0 1.155-.796 1.155-1.31 0-.104-.006-.179-.018-.237H.562z" transform="translate(-477.000000, -549.000000) translate(338.000000, 548.000000) translate(139.000000, 1.000000) translate(31.567006, 19.227304) scale(-1, 1) rotate(-180.000000) translate(-31.567006, -19.227304) translate(30.067006, 17.727304)"/>
                    </g>
                    <g>
                        <path d="M2.344.293C2.211.229 1.917.131 1.542.131.699.131.15.703.15 1.557c0 .86.588 1.49 1.5 1.49.3 0 .566-.076.704-.15l-.115-.388c-.121.064-.312.133-.589.133-.64 0-.986-.479-.986-1.056 0-.647.415-1.045.97-1.045.288 0 .478.07.622.133l.087-.381z" transform="translate(-477.000000, -549.000000) translate(338.000000, 548.000000) translate(139.000000, 1.000000) translate(34.528266, 18.832318) scale(-1, 1) rotate(-180.000000) translate(-34.528266, -18.832318) translate(33.028266, 16.832318)"/>
                    </g>
                    <g>
                        <path d="M1.01 3.647v-.67h.726v-.386H1.01V1.084c0-.347.099-.543.381-.543.139 0 .22.012.295.035L1.708.19c-.098-.035-.254-.07-.45-.07C1.02.12.83.202.709.334.571.49.513.737.513 1.066v1.525H.08v.386h.433v.52l.496.15z" transform="translate(-477.000000, -549.000000) translate(338.000000, 548.000000) translate(139.000000, 1.000000) translate(36.787595, 18.820792) scale(-1, 1) rotate(-180.000000) translate(-36.787595, -18.820792) translate(35.787595, 16.820792)"/>
                    </g>
                    <g>
                        <path d="M.13 2.051c0 .33-.006.612-.023.872h.445l.023-.554h.017c.127.375.439.611.779.611.052 0 .093-.005.139-.01v-.48c-.052.011-.104.011-.174.011-.357 0-.611-.265-.68-.646-.012-.07-.018-.156-.018-.237V.128H.13v1.923z" transform="translate(-477.000000, -549.000000) translate(338.000000, 548.000000) translate(139.000000, 1.000000) translate(39.103064, 19.266509) scale(-1, 1) rotate(-180.000000) translate(-39.103064, -19.266509) translate(38.103064, 17.766509)"/>
                    </g>
                    <g>
                        <path d="M.586 1.465c0-.612.346-1.074.843-1.074.485 0 .848.457.848 1.086 0 .473-.236 1.068-.837 1.068-.594 0-.854-.555-.854-1.08m2.21.029c0-1.033-.72-1.483-1.39-1.483-.75 0-1.34.554-1.34 1.437 0 .93.618 1.477 1.386 1.477.802 0 1.345-.582 1.345-1.431" transform="translate(-477.000000, -549.000000) translate(338.000000, 548.000000) translate(139.000000, 1.000000) translate(41.437988, 19.211570) scale(-1, 1) rotate(-180.000000) translate(-41.437988, -19.211570) translate(39.937988, 17.711570)"/>
                    </g>
                    <g>
                        <path d="M.13 2.051c0 .294-.006.525-.023.756h.45l.03-.462h.01c.14.26.463.52.924.52.387 0 .987-.231.987-1.189V.013H2v1.61c0 .45-.167.826-.646.826-.329 0-.589-.236-.68-.52-.024-.063-.036-.15-.036-.236V.013H.13v2.038z" transform="translate(-477.000000, -549.000000) translate(338.000000, 548.000000) translate(139.000000, 1.000000) translate(44.882635, 19.150888) scale(-1, 1) rotate(-180.000000) translate(-44.882635, -19.150888) translate(43.382635, 17.650888)"/>
                    </g>
                </g>
            </g>
        </g>
    </g>
</svg>
